<?xml version="1.0" standalone="no"?>
<!DOCTYPE svg PUBLIC "-//W3C//DTD SVG 20010904//EN"
 "http://www.w3.org/TR/2001/REC-SVG-20010904/DTD/svg10.dtd">
<svg version="1.0" xmlns="http://www.w3.org/2000/svg"
 width="633.000000pt" height="493.000000pt" viewBox="0 0 633.000000 493.000000"
 preserveAspectRatio="xMidYMid meet">

<g transform="translate(0.000000,493.000000) scale(0.100000,-0.100000)"
fill="#000000" stroke="none">
<path d="M2825 4834 c-475 -64 -860 -262 -1183 -610 -202 -217 -344 -497 -413
-814 -30 -138 -33 -453 -7 -595 61 -324 205 -614 422 -855 l35 -39 90 47 c50
26 91 50 91 55 0 4 -26 36 -58 70 -200 216 -327 474 -378 772 -12 68 -15 134
-11 275 4 165 8 198 35 301 76 293 210 519 436 736 672 645 1794 619 2441 -58
172 -181 268 -348 369 -647 35 -103 69 -199 76 -214 l13 -28 146 0 c247 0 414
-37 579 -126 138 -76 267 -191 356 -318 46 -66 122 -234 147 -326 31 -113 34
-363 6 -480 -91 -376 -368 -658 -747 -760 -78 -21 -110 -24 -397 -28 l-311 -4
-99 -101 c-97 -101 -98 -102 -68 -106 17 -1 201 -1 410 2 363 4 385 6 486 30
840 200 1221 1144 754 1868 -143 221 -385 406 -645 492 -108 36 -247 57 -376
57 l-112 0 -7 38 c-15 79 -69 232 -124 347 -198 414 -556 735 -1013 910 -275
106 -649 149 -943 109z"/>
<path d="M3870 3851 c-105 -30 -203 -119 -239 -216 -12 -31 -21 -61 -21 -68 0
-7 -24 -19 -52 -26 -29 -8 -98 -26 -153 -42 -483 -135 -753 -209 -766 -209 -5
0 -17 17 -28 38 -60 116 -207 193 -340 177 -84 -9 -171 -56 -230 -122 -62 -70
-85 -132 -86 -233 0 -65 4 -84 32 -141 18 -36 52 -85 75 -108 40 -40 130 -91
162 -91 8 0 16 -10 20 -22 7 -30 8 -416 0 -445 -4 -16 -21 -27 -55 -38 -27 -9
-72 -34 -99 -56 -206 -163 -175 -466 60 -594 51 -28 63 -30 155 -30 92 0 104
3 155 30 30 17 74 49 98 73 45 45 92 131 92 170 0 27 22 38 230 117 80 31 198
76 262 102 l118 46 72 -34 c66 -31 81 -34 163 -34 80 0 96 4 142 29 92 50 169
141 189 219 3 16 12 26 18 24 6 -2 88 -23 183 -47 l171 -43 11 -41 c27 -105
122 -207 226 -243 78 -28 186 -23 258 11 70 33 143 104 177 172 22 43 25 62
25 154 0 91 -3 111 -23 149 -49 91 -118 148 -226 187 -59 21 -62 24 -107 100
-37 65 -184 326 -273 486 l-21 36 30 63 c27 55 30 72 30 158 0 114 -19 164
-93 244 -65 69 -134 99 -237 103 -44 1 -91 -1 -105 -5z m198 -137 c64 -32 101
-79 117 -147 35 -158 -67 -291 -225 -291 -155 0 -262 131 -229 282 32 150 197
226 337 156z m-444 -320 c4 -14 19 -44 33 -67 94 -151 280 -214 432 -146 24
10 49 19 55 19 6 0 24 -24 40 -53 77 -138 212 -377 237 -420 16 -26 29 -51 29
-55 0 -4 -21 -16 -48 -26 -65 -27 -154 -119 -178 -185 -10 -29 -24 -51 -32
-51 -8 0 -91 19 -183 41 l-168 42 -16 52 c-32 113 -150 222 -262 245 -79 17
-151 7 -233 -31 l-70 -32 -62 23 c-35 12 -112 42 -173 65 -60 23 -173 66 -250
95 -77 30 -144 57 -148 60 -5 4 1 35 12 68 12 34 21 76 21 95 l0 33 138 38
c75 21 200 55 277 77 77 21 228 63 335 93 107 29 198 52 201 50 4 -2 10 -15
13 -30z m-1208 -32 c175 -90 159 -362 -25 -427 -171 -60 -338 71 -317 249 10
87 78 169 162 196 43 14 135 5 180 -18z m330 -571 c235 -88 428 -163 432 -166
1 -1 -8 -24 -20 -51 -30 -69 -30 -189 0 -258 12 -27 22 -50 22 -51 0 -2 -44
-20 -97 -40 -54 -21 -172 -67 -262 -102 -90 -35 -165 -63 -166 -61 -1 2 -15
29 -31 62 -37 77 -123 155 -198 180 l-56 19 0 243 0 242 33 6 c17 3 50 17 72
31 22 13 45 25 51 25 6 0 105 -36 220 -79z m815 -123 c54 -16 118 -73 140
-126 73 -169 -57 -348 -238 -329 -60 6 -130 42 -162 83 -32 41 -55 124 -47
175 4 24 7 49 7 54 2 19 60 95 85 111 63 42 144 54 215 32z m1085 -127 c52
-23 101 -71 120 -116 20 -49 18 -151 -5 -201 -40 -87 -148 -144 -247 -130
-227 31 -269 350 -59 447 52 24 138 24 191 0z m-2272 -345 c66 -20 110 -57
140 -118 61 -122 6 -271 -120 -324 -47 -20 -141 -17 -189 5 -141 64 -179 266
-69 376 69 69 145 89 238 61z"/>
<path d="M1025 3413 c-242 -43 -484 -172 -657 -350 -518 -532 -449 -1394 147
-1838 183 -136 378 -210 614 -234 132 -14 764 -15 759 -1 -1 5 -42 52 -91 104
l-87 94 -313 4 c-297 4 -317 6 -408 30 -562 151 -884 719 -723 1274 95 329
366 599 692 688 48 14 99 27 113 30 24 5 27 11 32 63 4 32 9 79 13 106 4 26 3
47 -2 46 -5 -1 -45 -8 -89 -16z"/>
<path d="M2910 1645 c-309 -46 -598 -181 -836 -392 l-59 -52 72 -72 72 -72 73
62 c389 331 905 424 1383 249 152 -55 319 -157 435 -265 l57 -52 66 67 c37 37
67 72 67 78 0 15 -80 89 -170 156 -206 153 -449 253 -715 293 -119 18 -326 18
-445 0z"/>
<path d="M2960 1205 c-212 -34 -422 -133 -580 -274 l-55 -49 65 -70 c36 -38
68 -70 73 -71 4 0 38 25 76 57 120 101 289 177 446 203 106 17 299 6 394 -22
142 -41 245 -96 369 -197 l55 -44 71 71 71 71 -45 40 c-259 231 -608 337 -940
285z"/>
<path d="M3048 769 c-123 -14 -241 -63 -346 -146 -34 -26 -61 -53 -62 -59 0
-7 30 -44 66 -83 l66 -71 45 41 c78 71 206 119 322 119 99 0 233 -50 306 -114
22 -20 42 -36 45 -36 3 0 37 31 75 70 l69 69 -20 22 c-32 36 -138 108 -199
134 -107 48 -246 68 -367 54z"/>
<path d="M3071 370 c-48 -10 -116 -47 -144 -78 -18 -19 -16 -22 95 -137 l112
-117 108 113 c59 63 108 119 108 125 0 14 -62 58 -110 78 -49 20 -117 26 -169
16z"/>
</g>
</svg>
